<svg width="200" height="200" viewBox="0 0 200 200" fill="none" xmlns="http://www.w3.org/2000/svg" role="img" aria-labelledby="title desc">
  <title id="title">MerlionOS-Zig logo</title>
  <desc id="desc">A clean shield mark combining a merlion profile, a sea wave, and a Zig-inspired lightning shape.</desc>

  <defs>
    <linearGradient id="gold" x1="76" y1="44" x2="126" y2="146" gradientUnits="userSpaceOnUse">
      <stop offset="0" stop-color="#FFC247" />
      <stop offset="1" stop-color="#F29A16" />
    </linearGradient>
    <linearGradient id="sea" x1="55" y1="123" x2="149" y2="156" gradientUnits="userSpaceOnUse">
      <stop offset="0" stop-color="#50E3D4" />
      <stop offset="1" stop-color="#1398B8" />
    </linearGradient>
  </defs>

  <path d="M100 24 158 48v61c0 31-21 50-58 66-37-16-58-35-58-66V48l58-24Z" fill="#F8FBFF" stroke="#1B2E4A" stroke-width="5" stroke-linejoin="round" />

  <path d="M56 136c15-12 33-15 54-8 15 5 28 3 41-8-5 23-26 38-54 38-19 0-33-8-41-22Z" fill="url(#sea)" />
  <path d="M62 141c13-5 27-5 43 0 14 5 27 4 40-3" stroke="#E7FFFB" stroke-width="5" stroke-linecap="round" opacity="0.8" />

  <path d="M95 45 143 65l-28 12 31 13-35 9-14 48-9-39-28-12 21-13-8-19 20 7 2-26Z" fill="url(#gold)" />
  <path d="M91 66 84 85l16 7 22-6-24-10 18-8-21-9-4 7Z" fill="#1B2E4A" opacity="0.92" />
  <circle cx="113" cy="70" r="4" fill="#06121F" />

  <path d="M99 101h28l-31 44 6-30H75l30-41-6 27Z" fill="#F5A51C" />
</svg>
