<svg xmlns="http://www.w3.org/2000/svg" viewBox="0 0 62 65" width="512" height="512" shape-rendering="crispEdges" role="img" aria-labelledby="t d"><title id="t">MerlionOS-Zig</title><desc id="d">Pixel-art merlion mascot — lion head with fish tail forming a Z.</desc><g fill="#F7A41D"><rect x="12" y="2" width="4" height="1"/><rect x="22" y="2" width="3" height="1"/><rect x="16" y="3" width="1" height="1"/><rect x="19" y="3" width="2" height="1"/><rect x="8" y="4" width="4" height="1"/><rect x="19" y="4" width="1" height="1"/><rect x="26" y="4" width="4" height="1"/><rect x="7" y="5" width="1" height="1"/><rect x="15" y="5" width="1" height="1"/><rect x="24" y="5" width="1" height="1"/><rect x="31" y="5" width="2" height="1"/><rect x="6" y="6" width="1" height="1"/><rect x="9" y="7" width="1" height="1"/><rect x="4" y="8" width="1" height="1"/><rect x="8" y="8" width="1" height="1"/><rect x="10" y="8" width="1" height="1"/><rect x="27" y="8" width="1" height="1"/><rect x="29" y="8" width="1" height="1"/><rect x="7" y="9" width="1" height="1"/><rect x="14" y="9" width="1" height="7"/><rect x="20" y="9" width="3" height="3"/><rect x="30" y="9" width="1" height="1"/><rect x="35" y="9" width="1" height="1"/><rect x="39" y="9" width="8" height="5"/><rect x="49" y="9" width="1" height="1"/><rect x="8" y="10" width="1" height="1"/><rect x="13" y="10" width="1" height="2"/><rect x="15" y="10" width="1" height="8"/><rect x="18" y="10" width="2" height="3"/><rect x="23" y="10" width="1" height="3"/><rect x="47" y="10" width="2" height="10"/><rect x="12" y="11" width="1" height="1"/><rect x="16" y="11" width="2" height="7"/><rect x="24" y="11" width="1" height="3"/><rect x="49" y="11" width="1" height="6"/><rect x="4" y="12" width="1" height="1"/><rect x="25" y="12" width="2" height="5"/><rect x="18" y="13" width="1" height="5"/><rect x="30" y="13" width="1" height="1"/><rect x="10" y="14" width="1" height="6"/><rect x="36" y="14" width="1" height="1"/><rect x="40" y="14" width="7" height="9"/><rect x="2" y="15" width="1" height="5"/><rect x="24" y="16" width="1" height="1"/><rect x="37" y="16" width="1" height="1"/><rect x="11" y="17" width="2" height="1"/><rect x="21" y="17" width="3" height="1"/><rect x="26" y="17" width="1" height="4"/><rect x="19" y="18" width="4" height="1"/><rect x="21" y="19" width="5" height="1"/><rect x="22" y="20" width="4" height="1"/><rect x="37" y="20" width="1" height="1"/><rect x="47" y="20" width="1" height="2"/><rect x="4" y="21" width="1" height="1"/><rect x="23" y="21" width="3" height="1"/><rect x="25" y="23" width="1" height="1"/><rect x="39" y="23" width="7" height="1"/><rect x="23" y="24" width="1" height="1"/><rect x="39" y="24" width="6" height="1"/><rect x="22" y="25" width="1" height="1"/><rect x="38" y="25" width="6" height="1"/><rect x="21" y="26" width="1" height="1"/><rect x="37" y="26" width="6" height="1"/><rect x="20" y="27" width="1" height="1"/><rect x="37" y="27" width="5" height="1"/><rect x="14" y="28" width="5" height="1"/><rect x="36" y="28" width="5" height="1"/><rect x="35" y="29" width="5" height="1"/><rect x="35" y="30" width="4" height="1"/><rect x="34" y="31" width="4" height="1"/><rect x="11" y="32" width="1" height="1"/><rect x="33" y="32" width="4" height="1"/><rect x="22" y="33" width="1" height="1"/><rect x="32" y="33" width="4" height="1"/><rect x="31" y="34" width="4" height="1"/><rect x="16" y="35" width="1" height="1"/><rect x="30" y="35" width="4" height="1"/><rect x="26" y="36" width="7" height="1"/><rect x="21" y="37" width="1" height="23"/><rect x="24" y="37" width="8" height="1"/><rect x="45" y="37" width="2" height="4"/><rect x="59" y="37" width="1" height="4"/><rect x="22" y="38" width="9" height="1"/><rect x="47" y="38" width="2" height="5"/><rect x="58" y="38" width="1" height="4"/><rect x="19" y="39" width="2" height="19"/><rect x="22" y="39" width="8" height="1"/><rect x="49" y="39" width="1" height="7"/><rect x="56" y="39" width="2" height="3"/><rect x="15" y="40" width="3" height="16"/><rect x="22" y="40" width="7" height="2"/><rect x="50" y="40" width="1" height="11"/><rect x="55" y="40" width="1" height="4"/><rect x="18" y="41" width="1" height="17"/><rect x="46" y="41" width="1" height="2"/><rect x="54" y="41" width="1" height="4"/><rect x="14" y="42" width="1" height="13"/><rect x="22" y="42" width="6" height="4"/><rect x="51" y="42" width="1" height="6"/><rect x="56" y="42" width="1" height="2"/><rect x="48" y="43" width="1" height="2"/><rect x="52" y="43" width="2" height="3"/><rect x="13" y="44" width="1" height="10"/><rect x="12" y="46" width="1" height="5"/><rect x="22" y="46" width="5" height="2"/><rect x="52" y="46" width="1" height="1"/><rect x="22" y="48" width="1" height="12"/><rect x="25" y="48" width="1" height="1"/><rect x="28" y="48" width="1" height="5"/><rect x="49" y="48" width="1" height="3"/><rect x="48" y="49" width="1" height="4"/><rect x="23" y="50" width="1" height="10"/><rect x="27" y="50" width="1" height="3"/><rect x="29" y="50" width="1" height="1"/><rect x="47" y="50" width="1" height="6"/><rect x="24" y="51" width="3" height="2"/><rect x="30" y="51" width="2" height="2"/><rect x="32" y="52" width="1" height="2"/><rect x="45" y="52" width="2" height="2"/><rect x="24" y="53" width="2" height="4"/><rect x="30" y="53" width="1" height="3"/><rect x="33" y="53" width="3" height="2"/><rect x="43" y="53" width="2" height="1"/><rect x="26" y="54" width="1" height="3"/><rect x="28" y="54" width="2" height="2"/><rect x="36" y="54" width="8" height="1"/><rect x="31" y="55" width="1" height="1"/><rect x="33" y="55" width="2" height="6"/><rect x="37" y="55" width="3" height="1"/><rect x="42" y="55" width="3" height="1"/><rect x="16" y="56" width="2" height="1"/><rect x="29" y="56" width="1" height="5"/><rect x="38" y="56" width="3" height="2"/><rect x="43" y="56" width="2" height="1"/><rect x="17" y="57" width="1" height="1"/><rect x="28" y="57" width="1" height="4"/><rect x="32" y="57" width="1" height="4"/><rect x="35" y="57" width="1" height="1"/><rect x="43" y="57" width="1" height="1"/><rect x="20" y="58" width="1" height="1"/><rect x="24" y="58" width="4" height="2"/><rect x="30" y="58" width="2" height="3"/><rect x="38" y="58" width="2" height="2"/><rect x="42" y="58" width="1" height="1"/><rect x="37" y="59" width="1" height="2"/><rect x="40" y="59" width="2" height="1"/><rect x="19" y="60" width="1" height="1"/><rect x="25" y="60" width="3" height="1"/><rect x="35" y="60" width="2" height="1"/><rect x="41" y="60" width="1" height="1"/><rect x="22" y="61" width="1" height="1"/><rect x="38" y="61" width="1" height="1"/></g><g fill="#D07910"><rect x="11" y="1" width="5" height="1"/><rect x="22" y="1" width="6" height="1"/><rect x="11" y="2" width="1" height="2"/><rect x="16" y="2" width="2" height="1"/><rect x="20" y="2" width="2" height="1"/><rect x="25" y="2" width="1" height="5"/><rect x="8" y="3" width="3" height="1"/><rect x="13" y="3" width="3" height="1"/><rect x="17" y="3" width="2" height="1"/><rect x="21" y="3" width="2" height="1"/><rect x="26" y="3" width="5" height="1"/><rect x="7" y="4" width="1" height="1"/><rect x="12" y="4" width="1" height="3"/><rect x="14" y="4" width="3" height="1"/><rect x="20" y="4" width="2" height="4"/><rect x="23" y="4" width="2" height="1"/><rect x="30" y="4" width="3" height="1"/><rect x="6" y="5" width="1" height="1"/><rect x="8" y="5" width="4" height="1"/><rect x="13" y="5" width="1" height="3"/><rect x="16" y="5" width="1" height="4"/><rect x="18" y="5" width="2" height="4"/><rect x="22" y="5" width="2" height="3"/><rect x="26" y="5" width="5" height="1"/><rect x="33" y="5" width="1" height="23"/><rect x="5" y="6" width="1" height="11"/><rect x="14" y="6" width="2" height="2"/><rect x="17" y="6" width="1" height="5"/><rect x="24" y="6" width="1" height="2"/><rect x="31" y="6" width="2" height="1"/><rect x="34" y="6" width="1" height="4"/><rect x="4" y="7" width="1" height="1"/><rect x="10" y="7" width="1" height="1"/><rect x="29" y="7" width="1" height="1"/><rect x="32" y="7" width="1" height="16"/><rect x="35" y="7" width="1" height="2"/><rect x="3" y="8" width="1" height="2"/><rect x="9" y="8" width="1" height="3"/><rect x="11" y="8" width="1" height="1"/><rect x="28" y="8" width="1" height="3"/><rect x="30" y="8" width="1" height="1"/><rect x="36" y="8" width="1" height="3"/><rect x="4" y="9" width="1" height="1"/><rect x="8" y="9" width="1" height="1"/><rect x="10" y="9" width="1" height="1"/><rect x="15" y="9" width="1" height="1"/><rect x="19" y="9" width="1" height="1"/><rect x="23" y="9" width="1" height="1"/><rect x="27" y="9" width="1" height="1"/><rect x="29" y="9" width="1" height="3"/><rect x="2" y="10" width="1" height="1"/><rect x="7" y="10" width="1" height="1"/><rect x="16" y="10" width="1" height="1"/><rect x="24" y="10" width="2" height="1"/><rect x="30" y="10" width="1" height="1"/><rect x="35" y="10" width="1" height="1"/><rect x="37" y="10" width="1" height="2"/><rect x="49" y="10" width="2" height="1"/><rect x="4" y="11" width="1" height="1"/><rect x="8" y="11" width="1" height="1"/><rect x="25" y="11" width="2" height="1"/><rect x="34" y="11" width="1" height="7"/><rect x="50" y="11" width="1" height="9"/><rect x="3" y="12" width="1" height="7"/><rect x="6" y="12" width="1" height="18"/><rect x="12" y="12" width="2" height="1"/><rect x="20" y="12" width="3" height="1"/><rect x="31" y="12" width="1" height="18"/><rect x="35" y="12" width="1" height="7"/><rect x="51" y="12" width="1" height="5"/><rect x="4" y="13" width="1" height="5"/><rect x="7" y="13" width="2" height="3"/><rect x="19" y="13" width="1" height="1"/><rect x="27" y="13" width="1" height="10"/><rect x="29" y="13" width="1" height="2"/><rect x="36" y="13" width="1" height="1"/><rect x="2" y="14" width="1" height="1"/><rect x="24" y="14" width="1" height="1"/><rect x="30" y="14" width="1" height="17"/><rect x="37" y="14" width="1" height="2"/><rect x="39" y="14" width="1" height="1"/><rect x="1" y="15" width="1" height="6"/><rect x="28" y="15" width="1" height="6"/><rect x="36" y="15" width="1" height="6"/><rect x="7" y="16" width="1" height="15"/><rect x="21" y="16" width="1" height="1"/><rect x="38" y="16" width="1" height="5"/><rect x="19" y="17" width="2" height="1"/><rect x="37" y="17" width="1" height="3"/><rect x="49" y="17" width="1" height="5"/><rect x="5" y="18" width="1" height="6"/><rect x="11" y="18" width="2" height="1"/><rect x="14" y="18" width="5" height="1"/><rect x="4" y="19" width="1" height="2"/><rect x="34" y="19" width="1" height="8"/><rect x="2" y="20" width="2" height="1"/><rect x="35" y="20" width="1" height="5"/><rect x="48" y="20" width="1" height="4"/><rect x="3" y="21" width="1" height="5"/><rect x="9" y="21" width="1" height="1"/><rect x="26" y="21" width="1" height="2"/><rect x="37" y="21" width="1" height="2"/><rect x="4" y="22" width="1" height="6"/><rect x="8" y="22" width="1" height="6"/><rect x="24" y="22" width="2" height="1"/><rect x="29" y="22" width="1" height="10"/><rect x="39" y="22" width="1" height="1"/><rect x="47" y="22" width="1" height="3"/><rect x="24" y="23" width="1" height="2"/><rect x="28" y="23" width="1" height="10"/><rect x="46" y="23" width="1" height="3"/><rect x="9" y="24" width="1" height="7"/><rect x="26" y="24" width="2" height="4"/><rect x="38" y="24" width="1" height="1"/><rect x="45" y="24" width="1" height="3"/><rect x="10" y="25" width="1" height="7"/><rect x="23" y="25" width="1" height="1"/><rect x="37" y="25" width="1" height="1"/><rect x="44" y="25" width="1" height="3"/><rect x="22" y="26" width="1" height="1"/><rect x="24" y="26" width="2" height="7"/><rect x="43" y="26" width="1" height="3"/><rect x="21" y="27" width="1" height="1"/><rect x="23" y="27" width="1" height="7"/><rect x="36" y="27" width="1" height="1"/><rect x="42" y="27" width="1" height="3"/><rect x="11" y="28" width="1" height="4"/><rect x="19" y="28" width="1" height="1"/><rect x="22" y="28" width="1" height="5"/><rect x="26" y="28" width="1" height="3"/><rect x="35" y="28" width="1" height="1"/><rect x="41" y="28" width="1" height="3"/><rect x="12" y="29" width="1" height="5"/><rect x="21" y="29" width="1" height="3"/><rect x="34" y="29" width="1" height="2"/><rect x="40" y="29" width="1" height="3"/><rect x="13" y="30" width="8" height="2"/><rect x="33" y="30" width="1" height="2"/><rect x="39" y="30" width="1" height="3"/><rect x="32" y="31" width="1" height="2"/><rect x="38" y="31" width="1" height="3"/><rect x="14" y="32" width="7" height="1"/><rect x="31" y="32" width="1" height="2"/><rect x="37" y="32" width="1" height="3"/><rect x="11" y="33" width="1" height="1"/><rect x="14" y="33" width="6" height="1"/><rect x="21" y="33" width="1" height="2"/><rect x="30" y="33" width="1" height="2"/><rect x="36" y="33" width="1" height="3"/><rect x="13" y="34" width="1" height="1"/><rect x="15" y="34" width="6" height="1"/><rect x="22" y="34" width="1" height="1"/><rect x="26" y="34" width="4" height="2"/><rect x="35" y="34" width="1" height="3"/><rect x="14" y="35" width="1" height="1"/><rect x="17" y="35" width="4" height="1"/><rect x="25" y="35" width="1" height="2"/><rect x="34" y="35" width="1" height="3"/><rect x="16" y="36" width="3" height="1"/><rect x="22" y="36" width="3" height="1"/><rect x="33" y="36" width="1" height="3"/><rect x="44" y="36" width="2" height="1"/><rect x="60" y="36" width="1" height="5"/><rect x="17" y="37" width="1" height="1"/><rect x="20" y="37" width="1" height="2"/><rect x="22" y="37" width="2" height="1"/><rect x="32" y="37" width="1" height="3"/><rect x="44" y="37" width="1" height="4"/><rect x="47" y="37" width="1" height="1"/><rect x="19" y="38" width="1" height="1"/><rect x="31" y="38" width="1" height="4"/><rect x="49" y="38" width="1" height="1"/><rect x="16" y="39" width="1" height="1"/><rect x="18" y="39" width="1" height="2"/><rect x="30" y="39" width="1" height="5"/><rect x="50" y="39" width="1" height="1"/><rect x="29" y="40" width="1" height="10"/><rect x="45" y="41" width="1" height="2"/><rect x="51" y="41" width="1" height="1"/><rect x="59" y="41" width="1" height="2"/><rect x="28" y="42" width="1" height="6"/><rect x="52" y="42" width="2" height="1"/><rect x="57" y="42" width="2" height="2"/><rect x="46" y="43" width="2" height="1"/><rect x="47" y="44" width="1" height="1"/><rect x="55" y="44" width="3" height="1"/><rect x="48" y="45" width="1" height="1"/><rect x="54" y="45" width="3" height="1"/><rect x="27" y="46" width="1" height="1"/><rect x="49" y="46" width="1" height="2"/><rect x="53" y="46" width="2" height="1"/><rect x="52" y="47" width="2" height="1"/><rect x="24" y="48" width="1" height="1"/><rect x="26" y="48" width="1" height="1"/><rect x="48" y="48" width="1" height="1"/><rect x="51" y="48" width="1" height="3"/><rect x="23" y="49" width="1" height="1"/><rect x="27" y="49" width="1" height="1"/><rect x="30" y="49" width="1" height="2"/><rect x="24" y="50" width="3" height="1"/><rect x="31" y="50" width="1" height="1"/><rect x="12" y="51" width="1" height="4"/><rect x="32" y="51" width="1" height="1"/><rect x="49" y="51" width="2" height="2"/><rect x="33" y="52" width="2" height="1"/><rect x="29" y="53" width="1" height="1"/><rect x="48" y="53" width="2" height="2"/><rect x="13" y="54" width="1" height="3"/><rect x="27" y="54" width="1" height="1"/><rect x="31" y="54" width="1" height="1"/><rect x="44" y="54" width="1" height="1"/><rect x="46" y="54" width="1" height="5"/><rect x="14" y="55" width="1" height="3"/><rect x="40" y="55" width="1" height="1"/><rect x="48" y="55" width="1" height="2"/><rect x="15" y="56" width="1" height="3"/><rect x="28" y="56" width="1" height="1"/><rect x="30" y="56" width="1" height="1"/><rect x="35" y="56" width="1" height="1"/><rect x="47" y="56" width="1" height="2"/><rect x="16" y="57" width="1" height="3"/><rect x="27" y="57" width="1" height="1"/><rect x="36" y="57" width="1" height="1"/><rect x="42" y="57" width="1" height="1"/><rect x="44" y="57" width="2" height="2"/><rect x="17" y="58" width="3" height="2"/><rect x="35" y="58" width="1" height="1"/><rect x="40" y="58" width="1" height="1"/><rect x="43" y="58" width="1" height="3"/><rect x="20" y="59" width="1" height="3"/><rect x="42" y="59" width="1" height="2"/><rect x="44" y="59" width="1" height="1"/><rect x="17" y="60" width="2" height="1"/><rect x="21" y="60" width="4" height="1"/><rect x="38" y="60" width="3" height="1"/><rect x="19" y="61" width="1" height="1"/><rect x="21" y="61" width="1" height="1"/><rect x="23" y="61" width="15" height="2"/><rect x="39" y="61" width="3" height="1"/><rect x="22" y="62" width="1" height="1"/><rect x="38" y="62" width="1" height="1"/></g><g fill="#1B2E4A"><rect x="16" y="0" width="1" height="2"/><rect x="21" y="0" width="1" height="2"/><rect x="9" y="1" width="2" height="2"/><rect x="17" y="1" width="1" height="1"/><rect x="20" y="1" width="1" height="1"/><rect x="28" y="1" width="2" height="2"/><rect x="8" y="2" width="1" height="1"/><rect x="18" y="2" width="2" height="1"/><rect x="26" y="2" width="2" height="1"/><rect x="30" y="2" width="2" height="1"/><rect x="6" y="3" width="2" height="1"/><rect x="12" y="3" width="1" height="1"/><rect x="23" y="3" width="2" height="1"/><rect x="31" y="3" width="2" height="1"/><rect x="5" y="4" width="2" height="1"/><rect x="13" y="4" width="1" height="1"/><rect x="17" y="4" width="2" height="1"/><rect x="22" y="4" width="1" height="1"/><rect x="33" y="4" width="1" height="1"/><rect x="5" y="5" width="1" height="1"/><rect x="14" y="5" width="1" height="1"/><rect x="17" y="5" width="1" height="1"/><rect x="34" y="5" width="1" height="1"/><rect x="3" y="6" width="2" height="1"/><rect x="7" y="6" width="5" height="1"/><rect x="26" y="6" width="5" height="1"/><rect x="35" y="6" width="12" height="1"/><rect x="3" y="7" width="1" height="1"/><rect x="6" y="7" width="2" height="1"/><rect x="11" y="7" width="2" height="1"/><rect x="25" y="7" width="2" height="1"/><rect x="30" y="7" width="2" height="1"/><rect x="36" y="7" width="14" height="1"/><rect x="2" y="8" width="1" height="2"/><rect x="6" y="8" width="1" height="4"/><rect x="12" y="8" width="4" height="1"/><rect x="20" y="8" width="6" height="1"/><rect x="31" y="8" width="1" height="4"/><rect x="37" y="8" width="1" height="2"/><rect x="49" y="8" width="2" height="1"/><rect x="11" y="9" width="1" height="1"/><rect x="16" y="9" width="1" height="1"/><rect x="18" y="9" width="1" height="1"/><rect x="24" y="9" width="3" height="1"/><rect x="38" y="9" width="1" height="7"/><rect x="50" y="9" width="2" height="1"/><rect x="1" y="10" width="1" height="1"/><rect x="3" y="10" width="2" height="1"/><rect x="10" y="10" width="1" height="1"/><rect x="26" y="10" width="2" height="1"/><rect x="34" y="10" width="1" height="1"/><rect x="51" y="10" width="1" height="2"/><rect x="2" y="11" width="2" height="1"/><rect x="7" y="11" width="1" height="2"/><rect x="9" y="11" width="1" height="5"/><rect x="27" y="11" width="2" height="2"/><rect x="30" y="11" width="1" height="2"/><rect x="35" y="11" width="2" height="1"/><rect x="52" y="11" width="1" height="7"/><rect x="2" y="12" width="1" height="2"/><rect x="8" y="12" width="1" height="1"/><rect x="29" y="12" width="1" height="1"/><rect x="36" y="12" width="2" height="1"/><rect x="1" y="13" width="1" height="2"/><rect x="11" y="13" width="3" height="1"/><rect x="20" y="13" width="4" height="1"/><rect x="28" y="13" width="1" height="2"/><rect x="37" y="13" width="1" height="1"/><rect x="0" y="14" width="1" height="1"/><rect x="13" y="14" width="1" height="2"/><rect x="19" y="14" width="1" height="3"/><rect x="22" y="14" width="2" height="1"/><rect x="12" y="15" width="1" height="2"/><rect x="22" y="15" width="1" height="2"/><rect x="29" y="15" width="1" height="7"/><rect x="39" y="15" width="1" height="7"/><rect x="0" y="16" width="1" height="1"/><rect x="8" y="16" width="1" height="6"/><rect x="5" y="17" width="1" height="1"/><rect x="51" y="17" width="1" height="4"/><rect x="4" y="18" width="1" height="1"/><rect x="34" y="18" width="1" height="1"/><rect x="3" y="19" width="1" height="1"/><rect x="13" y="19" width="6" height="1"/><rect x="35" y="19" width="1" height="1"/><rect x="14" y="20" width="3" height="1"/><rect x="50" y="20" width="1" height="3"/><rect x="1" y="21" width="2" height="4"/><rect x="15" y="21" width="1" height="1"/><rect x="28" y="21" width="1" height="2"/><rect x="36" y="21" width="1" height="6"/><rect x="38" y="21" width="1" height="3"/><rect x="0" y="22" width="1" height="1"/><rect x="9" y="22" width="1" height="2"/><rect x="49" y="22" width="1" height="2"/><rect x="10" y="23" width="1" height="2"/><rect x="14" y="23" width="2" height="1"/><rect x="21" y="23" width="1" height="1"/><rect x="26" y="23" width="2" height="1"/><rect x="32" y="23" width="1" height="8"/><rect x="37" y="23" width="1" height="2"/><rect x="5" y="24" width="1" height="7"/><rect x="11" y="24" width="1" height="4"/><rect x="13" y="24" width="2" height="1"/><rect x="17" y="24" width="1" height="1"/><rect x="20" y="24" width="1" height="1"/><rect x="25" y="24" width="1" height="2"/><rect x="48" y="24" width="1" height="1"/><rect x="2" y="25" width="1" height="2"/><rect x="24" y="25" width="1" height="1"/><rect x="35" y="25" width="1" height="3"/><rect x="47" y="25" width="1" height="1"/><rect x="3" y="26" width="1" height="3"/><rect x="23" y="26" width="1" height="1"/><rect x="46" y="26" width="1" height="1"/><rect x="12" y="27" width="1" height="2"/><rect x="22" y="27" width="1" height="1"/><rect x="34" y="27" width="1" height="2"/><rect x="45" y="27" width="1" height="1"/><rect x="4" y="28" width="1" height="2"/><rect x="8" y="28" width="1" height="5"/><rect x="13" y="28" width="1" height="2"/><rect x="20" y="28" width="2" height="1"/><rect x="27" y="28" width="1" height="6"/><rect x="33" y="28" width="1" height="2"/><rect x="44" y="28" width="1" height="1"/><rect x="14" y="29" width="7" height="1"/><rect x="43" y="29" width="1" height="1"/><rect x="6" y="30" width="1" height="2"/><rect x="31" y="30" width="1" height="2"/><rect x="42" y="30" width="1" height="1"/><rect x="7" y="31" width="1" height="2"/><rect x="9" y="31" width="1" height="3"/><rect x="26" y="31" width="1" height="3"/><rect x="30" y="31" width="1" height="2"/><rect x="41" y="31" width="1" height="1"/><rect x="10" y="32" width="1" height="3"/><rect x="13" y="32" width="1" height="2"/><rect x="21" y="32" width="1" height="1"/><rect x="29" y="32" width="1" height="2"/><rect x="40" y="32" width="1" height="1"/><rect x="20" y="33" width="1" height="1"/><rect x="24" y="33" width="2" height="2"/><rect x="28" y="33" width="1" height="1"/><rect x="39" y="33" width="1" height="3"/><rect x="11" y="34" width="2" height="2"/><rect x="14" y="34" width="1" height="1"/><rect x="23" y="34" width="1" height="2"/><rect x="38" y="34" width="1" height="4"/><rect x="60" y="34" width="1" height="2"/><rect x="13" y="35" width="1" height="2"/><rect x="15" y="35" width="1" height="3"/><rect x="21" y="35" width="2" height="1"/><rect x="24" y="35" width="1" height="1"/><rect x="37" y="35" width="1" height="4"/><rect x="44" y="35" width="2" height="1"/><rect x="59" y="35" width="1" height="2"/><rect x="14" y="36" width="1" height="2"/><rect x="19" y="36" width="3" height="1"/><rect x="36" y="36" width="1" height="2"/><rect x="46" y="36" width="2" height="1"/><rect x="57" y="36" width="2" height="1"/><rect x="16" y="37" width="1" height="2"/><rect x="18" y="37" width="2" height="1"/><rect x="35" y="37" width="1" height="4"/><rect x="48" y="37" width="2" height="1"/><rect x="55" y="37" width="2" height="1"/><rect x="13" y="38" width="1" height="2"/><rect x="17" y="38" width="2" height="1"/><rect x="34" y="38" width="1" height="2"/><rect x="50" y="38" width="1" height="1"/><rect x="54" y="38" width="1" height="1"/><rect x="17" y="39" width="1" height="1"/><rect x="33" y="39" width="1" height="2"/><rect x="36" y="39" width="1" height="1"/><rect x="51" y="39" width="1" height="2"/><rect x="53" y="39" width="1" height="1"/><rect x="12" y="40" width="1" height="2"/><rect x="32" y="40" width="1" height="4"/><rect x="52" y="40" width="1" height="2"/><rect x="34" y="41" width="1" height="1"/><rect x="44" y="41" width="1" height="2"/><rect x="60" y="41" width="2" height="1"/><rect x="11" y="42" width="1" height="3"/><rect x="31" y="42" width="1" height="3"/><rect x="33" y="42" width="1" height="7"/><rect x="60" y="42" width="1" height="2"/><rect x="45" y="43" width="1" height="2"/><rect x="59" y="43" width="1" height="2"/><rect x="10" y="44" width="1" height="10"/><rect x="30" y="44" width="1" height="5"/><rect x="46" y="44" width="1" height="2"/><rect x="58" y="44" width="1" height="2"/><rect x="47" y="45" width="1" height="2"/><rect x="57" y="45" width="1" height="2"/><rect x="48" y="46" width="1" height="2"/><rect x="55" y="46" width="2" height="1"/><rect x="31" y="47" width="2" height="3"/><rect x="54" y="47" width="2" height="1"/><rect x="34" y="48" width="1" height="1"/><rect x="47" y="48" width="1" height="2"/><rect x="52" y="48" width="2" height="2"/><rect x="35" y="49" width="1" height="1"/><rect x="37" y="49" width="1" height="2"/><rect x="46" y="49" width="1" height="1"/><rect x="32" y="50" width="3" height="1"/><rect x="38" y="50" width="2" height="1"/><rect x="44" y="50" width="2" height="1"/><rect x="52" y="50" width="1" height="2"/><rect x="33" y="51" width="4" height="1"/><rect x="39" y="51" width="5" height="1"/><rect x="51" y="51" width="1" height="3"/><rect x="11" y="52" width="1" height="4"/><rect x="35" y="52" width="7" height="1"/><rect x="50" y="53" width="1" height="3"/><rect x="12" y="55" width="1" height="3"/><rect x="49" y="55" width="1" height="2"/><rect x="13" y="57" width="1" height="2"/><rect x="48" y="57" width="1" height="1"/><rect x="14" y="58" width="1" height="2"/><rect x="47" y="58" width="1" height="1"/><rect x="15" y="59" width="1" height="2"/><rect x="45" y="59" width="2" height="1"/><rect x="16" y="60" width="1" height="2"/><rect x="44" y="60" width="2" height="1"/><rect x="17" y="61" width="2" height="1"/><rect x="42" y="61" width="3" height="1"/><rect x="18" y="62" width="4" height="1"/><rect x="39" y="62" width="2" height="1"/><rect x="42" y="62" width="1" height="1"/><rect x="22" y="63" width="16" height="1"/></g><g fill="#FFE0A8"><rect x="17" y="0" width="1" height="1"/><rect x="20" y="0" width="1" height="1"/><rect x="47" y="6" width="1" height="1"/><rect x="8" y="7" width="1" height="1"/><rect x="27" y="7" width="1" height="1"/><rect x="50" y="7" width="1" height="1"/><rect x="7" y="8" width="1" height="1"/><rect x="26" y="8" width="1" height="1"/><rect x="51" y="8" width="1" height="1"/><rect x="13" y="9" width="1" height="1"/><rect x="47" y="9" width="1" height="1"/><rect x="12" y="10" width="1" height="1"/><rect x="52" y="10" width="1" height="1"/><rect x="11" y="12" width="1" height="1"/><rect x="10" y="13" width="1" height="1"/><rect x="11" y="15" width="1" height="2"/><rect x="24" y="15" width="1" height="1"/><rect x="14" y="16" width="1" height="2"/><rect x="23" y="16" width="1" height="1"/><rect x="13" y="17" width="1" height="1"/><rect x="24" y="17" width="2" height="2"/><rect x="9" y="18" width="1" height="1"/><rect x="23" y="18" width="1" height="1"/><rect x="11" y="19" width="1" height="1"/><rect x="19" y="19" width="2" height="1"/><rect x="9" y="20" width="2" height="1"/><rect x="18" y="20" width="1" height="1"/><rect x="21" y="20" width="1" height="1"/><rect x="16" y="21" width="1" height="1"/><rect x="22" y="21" width="1" height="2"/><rect x="14" y="22" width="1" height="1"/><rect x="21" y="22" width="1" height="1"/><rect x="23" y="22" width="1" height="2"/><rect x="0" y="23" width="1" height="1"/><rect x="20" y="23" width="1" height="1"/><rect x="15" y="24" width="1" height="1"/><rect x="22" y="24" width="1" height="1"/><rect x="1" y="25" width="1" height="1"/><rect x="12" y="25" width="2" height="1"/><rect x="17" y="25" width="5" height="1"/><rect x="20" y="26" width="1" height="1"/><rect x="2" y="27" width="1" height="1"/><rect x="13" y="27" width="1" height="1"/><rect x="19" y="27" width="1" height="1"/><rect x="59" y="34" width="1" height="1"/><rect x="47" y="35" width="1" height="1"/><rect x="57" y="35" width="2" height="1"/><rect x="49" y="36" width="1" height="1"/><rect x="56" y="36" width="1" height="1"/><rect x="54" y="37" width="1" height="1"/><rect x="58" y="37" width="1" height="1"/><rect x="12" y="38" width="1" height="1"/><rect x="15" y="38" width="1" height="2"/><rect x="53" y="38" width="1" height="1"/><rect x="56" y="38" width="2" height="1"/><rect x="55" y="39" width="1" height="1"/><rect x="11" y="40" width="1" height="1"/><rect x="14" y="40" width="1" height="2"/><rect x="54" y="40" width="1" height="1"/><rect x="53" y="41" width="1" height="1"/><rect x="13" y="42" width="1" height="2"/><rect x="43" y="42" width="1" height="1"/><rect x="61" y="42" width="1" height="1"/><rect x="44" y="44" width="1" height="1"/><rect x="60" y="44" width="1" height="1"/><rect x="11" y="45" width="2" height="1"/><rect x="45" y="45" width="1" height="1"/><rect x="59" y="45" width="1" height="1"/><rect x="9" y="46" width="1" height="6"/><rect x="46" y="46" width="1" height="1"/><rect x="58" y="46" width="1" height="1"/><rect x="11" y="47" width="1" height="5"/><rect x="57" y="47" width="1" height="1"/><rect x="55" y="48" width="1" height="1"/><rect x="45" y="49" width="1" height="1"/><rect x="43" y="50" width="1" height="1"/><rect x="53" y="50" width="1" height="1"/><rect x="45" y="51" width="2" height="1"/><rect x="43" y="52" width="2" height="1"/><rect x="52" y="52" width="1" height="1"/><rect x="37" y="53" width="4" height="1"/><rect x="42" y="53" width="1" height="1"/><rect x="10" y="54" width="1" height="1"/><rect x="51" y="54" width="1" height="1"/><rect x="11" y="56" width="1" height="1"/><rect x="50" y="56" width="1" height="1"/><rect x="49" y="57" width="1" height="1"/><rect x="12" y="58" width="1" height="1"/><rect x="48" y="58" width="1" height="1"/><rect x="13" y="59" width="1" height="1"/><rect x="47" y="59" width="1" height="1"/><rect x="14" y="60" width="1" height="1"/><rect x="46" y="60" width="1" height="1"/><rect x="15" y="61" width="1" height="1"/><rect x="45" y="61" width="1" height="1"/><rect x="17" y="62" width="1" height="1"/><rect x="43" y="62" width="1" height="1"/><rect x="19" y="63" width="1" height="1"/><rect x="40" y="63" width="1" height="1"/><rect x="14" y="64" width="1" height="1"/><rect x="22" y="64" width="1" height="1"/><rect x="47" y="64" width="1" height="1"/></g><g fill="#2F9EB8"><rect x="10" y="0" width="6" height="1"/><rect x="22" y="0" width="7" height="1"/><rect x="8" y="1" width="1" height="1"/><rect x="18" y="1" width="2" height="1"/><rect x="30" y="1" width="1" height="1"/><rect x="7" y="2" width="1" height="1"/><rect x="32" y="2" width="1" height="1"/><rect x="33" y="3" width="1" height="1"/><rect x="34" y="4" width="1" height="1"/><rect x="4" y="5" width="1" height="1"/><rect x="35" y="5" width="1" height="1"/><rect x="2" y="7" width="1" height="1"/><rect x="48" y="8" width="1" height="1"/><rect x="1" y="9" width="1" height="1"/><rect x="12" y="9" width="1" height="1"/><rect x="11" y="10" width="1" height="1"/><rect x="1" y="11" width="1" height="1"/><rect x="10" y="11" width="1" height="1"/><rect x="12" y="14" width="1" height="1"/><rect x="20" y="14" width="1" height="3"/><rect x="0" y="15" width="1" height="1"/><rect x="21" y="15" width="1" height="1"/><rect x="9" y="16" width="1" height="1"/><rect x="13" y="16" width="1" height="1"/><rect x="0" y="17" width="1" height="5"/><rect x="13" y="18" width="1" height="1"/><rect x="52" y="18" width="1" height="1"/><rect x="12" y="19" width="1" height="1"/><rect x="13" y="20" width="1" height="1"/><rect x="17" y="20" width="1" height="1"/><rect x="14" y="21" width="1" height="1"/><rect x="51" y="21" width="1" height="1"/><rect x="10" y="22" width="1" height="1"/><rect x="15" y="22" width="1" height="1"/><rect x="11" y="23" width="1" height="1"/><rect x="16" y="23" width="1" height="2"/><rect x="22" y="23" width="1" height="1"/><rect x="50" y="23" width="1" height="1"/><rect x="12" y="24" width="1" height="1"/><rect x="18" y="24" width="2" height="1"/><rect x="21" y="24" width="1" height="1"/><rect x="49" y="24" width="1" height="1"/><rect x="48" y="25" width="1" height="1"/><rect x="47" y="26" width="1" height="1"/><rect x="46" y="27" width="1" height="1"/><rect x="45" y="28" width="1" height="1"/><rect x="44" y="29" width="1" height="1"/><rect x="43" y="30" width="1" height="1"/><rect x="42" y="31" width="1" height="1"/><rect x="41" y="32" width="1" height="1"/><rect x="40" y="33" width="1" height="3"/><rect x="44" y="34" width="2" height="1"/><rect x="61" y="34" width="1" height="7"/><rect x="43" y="35" width="1" height="7"/><rect x="46" y="35" width="1" height="1"/><rect x="39" y="36" width="1" height="1"/><rect x="48" y="36" width="1" height="1"/><rect x="13" y="37" width="1" height="1"/><rect x="50" y="37" width="1" height="1"/><rect x="57" y="37" width="1" height="1"/><rect x="14" y="38" width="1" height="1"/><rect x="36" y="38" width="1" height="1"/><rect x="38" y="38" width="1" height="1"/><rect x="51" y="38" width="1" height="1"/><rect x="55" y="38" width="1" height="1"/><rect x="12" y="39" width="1" height="1"/><rect x="37" y="39" width="1" height="1"/><rect x="52" y="39" width="1" height="1"/><rect x="54" y="39" width="1" height="1"/><rect x="13" y="40" width="1" height="1"/><rect x="34" y="40" width="1" height="1"/><rect x="36" y="40" width="1" height="1"/><rect x="53" y="40" width="1" height="1"/><rect x="11" y="41" width="1" height="1"/><rect x="33" y="41" width="1" height="1"/><rect x="35" y="41" width="1" height="1"/><rect x="12" y="42" width="1" height="1"/><rect x="34" y="42" width="1" height="1"/><rect x="10" y="43" width="1" height="1"/><rect x="44" y="43" width="1" height="1"/><rect x="32" y="44" width="1" height="3"/><rect x="31" y="45" width="1" height="2"/><rect x="27" y="47" width="1" height="2"/><rect x="34" y="47" width="1" height="1"/><rect x="47" y="47" width="1" height="1"/><rect x="56" y="47" width="1" height="1"/><rect x="23" y="48" width="1" height="1"/><rect x="35" y="48" width="1" height="1"/><rect x="46" y="48" width="1" height="1"/><rect x="54" y="48" width="1" height="1"/><rect x="24" y="49" width="3" height="1"/><rect x="33" y="49" width="2" height="1"/><rect x="36" y="49" width="1" height="2"/><rect x="38" y="49" width="1" height="1"/><rect x="35" y="50" width="1" height="1"/><rect x="40" y="50" width="1" height="1"/><rect x="46" y="50" width="1" height="1"/><rect x="29" y="51" width="1" height="2"/><rect x="37" y="51" width="2" height="1"/><rect x="44" y="51" width="1" height="1"/><rect x="42" y="52" width="1" height="1"/><rect x="26" y="53" width="3" height="1"/><rect x="31" y="53" width="1" height="1"/><rect x="4" y="54" width="3" height="3"/><rect x="32" y="54" width="1" height="3"/><rect x="45" y="54" width="1" height="3"/><rect x="55" y="54" width="3" height="2"/><rect x="7" y="55" width="1" height="3"/><rect x="27" y="55" width="1" height="2"/><rect x="35" y="55" width="2" height="1"/><rect x="41" y="55" width="1" height="4"/><rect x="54" y="55" width="1" height="3"/><rect x="31" y="56" width="1" height="2"/><rect x="36" y="56" width="2" height="1"/><rect x="42" y="56" width="1" height="1"/><rect x="55" y="56" width="2" height="1"/><rect x="6" y="57" width="1" height="1"/><rect x="8" y="57" width="1" height="2"/><rect x="24" y="57" width="3" height="1"/><rect x="30" y="57" width="1" height="1"/><rect x="37" y="57" width="1" height="2"/><rect x="53" y="57" width="1" height="1"/><rect x="36" y="58" width="1" height="2"/><rect x="35" y="59" width="1" height="1"/><rect x="51" y="60" width="4" height="4"/><rect x="8" y="61" width="3" height="4"/><rect x="50" y="61" width="1" height="4"/><rect x="55" y="61" width="1" height="2"/><rect x="7" y="62" width="1" height="2"/><rect x="11" y="62" width="2" height="3"/><rect x="41" y="62" width="1" height="1"/><rect x="49" y="62" width="1" height="3"/><rect x="13" y="63" width="2" height="1"/><rect x="20" y="63" width="2" height="1"/><rect x="38" y="63" width="2" height="1"/><rect x="47" y="63" width="2" height="1"/><rect x="13" y="64" width="1" height="1"/><rect x="23" y="64" width="15" height="1"/><rect x="48" y="64" width="1" height="1"/><rect x="51" y="64" width="3" height="1"/></g><g fill="#FFFFFF"><rect x="28" y="7" width="1" height="1"/><rect x="38" y="8" width="9" height="1"/><rect x="48" y="9" width="1" height="1"/><rect x="52" y="9" width="1" height="1"/><rect x="11" y="11" width="1" height="1"/><rect x="53" y="11" width="1" height="7"/><rect x="1" y="12" width="1" height="1"/><rect x="0" y="13" width="1" height="1"/><rect x="21" y="14" width="1" height="1"/><rect x="23" y="15" width="1" height="1"/><rect x="9" y="17" width="1" height="1"/><rect x="9" y="19" width="1" height="1"/><rect x="52" y="19" width="1" height="2"/><rect x="51" y="22" width="1" height="1"/><rect x="13" y="23" width="1" height="1"/><rect x="14" y="25" width="1" height="1"/><rect x="16" y="25" width="1" height="1"/><rect x="3" y="29" width="1" height="1"/><rect x="4" y="30" width="1" height="1"/><rect x="5" y="31" width="1" height="1"/><rect x="6" y="32" width="1" height="1"/><rect x="8" y="33" width="1" height="1"/><rect x="60" y="33" width="2" height="1"/><rect x="9" y="34" width="1" height="1"/><rect x="10" y="35" width="1" height="1"/><rect x="12" y="36" width="1" height="1"/><rect x="55" y="36" width="1" height="1"/><rect x="14" y="39" width="1" height="1"/><rect x="13" y="41" width="1" height="1"/><rect x="10" y="42" width="1" height="1"/><rect x="12" y="43" width="1" height="2"/><rect x="9" y="44" width="1" height="2"/><rect x="11" y="46" width="1" height="1"/><rect x="53" y="51" width="1" height="1"/><rect x="9" y="52" width="1" height="2"/><rect x="36" y="53" width="1" height="1"/><rect x="41" y="53" width="1" height="1"/><rect x="52" y="53" width="1" height="1"/><rect x="7" y="54" width="1" height="1"/><rect x="54" y="54" width="1" height="1"/><rect x="10" y="55" width="1" height="1"/><rect x="51" y="55" width="1" height="1"/><rect x="8" y="56" width="1" height="1"/><rect x="53" y="56" width="1" height="1"/><rect x="5" y="57" width="1" height="1"/><rect x="11" y="57" width="1" height="1"/><rect x="55" y="57" width="1" height="1"/><rect x="7" y="58" width="1" height="1"/><rect x="51" y="59" width="4" height="1"/><rect x="8" y="60" width="3" height="1"/><rect x="50" y="60" width="1" height="1"/><rect x="55" y="60" width="1" height="1"/><rect x="7" y="61" width="1" height="1"/><rect x="11" y="61" width="2" height="1"/><rect x="49" y="61" width="1" height="1"/><rect x="13" y="62" width="2" height="1"/><rect x="47" y="62" width="2" height="1"/></g></svg>